# xmcd
#
# Track frame offsets:
#	150
#	19749
#	30603
#	49778
#	66077
#	84453
#	107406
#
# Disc length: 1597 seconds
#
# Revision: 0
# Processed by: cddbd v1.5.2PL0 Copyright (c) Steve Scherf et al.
# Submitted via: audiograbber 1.83.01
#
DISCID=4d063b07
DTITLE=Becky Lee and Drunkfoot - One Take Demo
DYEAR=2008
DGENRE=Blues
TTITLE0=Old Fashioned Man
TTITLE1=Cook That Sugar
TTITLE2=Big White Van
TTITLE3=Waterfalls
TTITLE4=The Boat and The Horse
TTITLE5=Sturdy The Dam
TTITLE6=Man Like You
EXTD=
EXTT0=
EXTT1=
EXTT2=
EXTT3=
EXTT4=
EXTT5=
EXTT6=
PLAYORDER=
